<svg width="1024" height="1024" viewBox="0 0 1024 1024" fill="none" xmlns="http://www.w3.org/2000/svg">
  <defs>
    <radialGradient id="bg" cx="0" cy="0" r="1" gradientUnits="userSpaceOnUse" gradientTransform="translate(512 512) rotate(90) scale(640)">
      <stop offset="0" stop-color="#0B0C2A"/>
      <stop offset="0.55" stop-color="#050615"/>
      <stop offset="1" stop-color="#02020A"/>
    </radialGradient>
    <linearGradient id="disk" x1="128" y1="512" x2="896" y2="512" gradientUnits="userSpaceOnUse">
      <stop offset="0" stop-color="#B18CFF" stop-opacity="0"/>
      <stop offset="0.18" stop-color="#B18CFF" stop-opacity="0.95"/>
      <stop offset="0.52" stop-color="#7D5CFF" stop-opacity="1"/>
      <stop offset="0.78" stop-color="#F2C1FF" stop-opacity="0.95"/>
      <stop offset="1" stop-color="#F2C1FF" stop-opacity="0"/>
    </linearGradient>
    <linearGradient id="ring" x1="360" y1="360" x2="664" y2="664" gradientUnits="userSpaceOnUse">
      <stop stop-color="#6E4DFF"/>
      <stop offset="0.6" stop-color="#B18CFF"/>
      <stop offset="1" stop-color="#F2C1FF"/>
    </linearGradient>
    <filter id="softGlow" x="-50%" y="-50%" width="200%" height="200%" color-interpolation-filters="sRGB">
      <feGaussianBlur stdDeviation="14" result="b"/>
      <feColorMatrix in="b" type="matrix" values="1 0 0 0 0  0 1 0 0 0  0 0 1 0 0  0 0 0 0.7 0" result="g"/>
      <feMerge>
        <feMergeNode in="g"/>
        <feMergeNode in="SourceGraphic"/>
      </feMerge>
    </filter>
    <filter id="halo" x="-50%" y="-50%" width="200%" height="200%" color-interpolation-filters="sRGB">
      <feGaussianBlur stdDeviation="28" result="b"/>
      <feColorMatrix in="b" type="matrix" values="1 0 0 0 0  0 1 0 0 0  0 0 1 0 0  0 0 0 0.55 0" result="g"/>
      <feMerge>
        <feMergeNode in="g"/>
      </feMerge>
    </filter>
  </defs>

  <rect width="1024" height="1024" rx="220" fill="url(#bg)"/>

  <g opacity="0.55" filter="url(#halo)">
    <ellipse cx="512" cy="512" rx="470" ry="260" stroke="#3B2B8F" stroke-width="34"/>
  </g>

  <g filter="url(#softGlow)">
    <circle cx="512" cy="512" r="220" fill="#02020A"/>
    <circle cx="512" cy="512" r="238" stroke="url(#ring)" stroke-width="44" opacity="0.95"/>
    <circle cx="512" cy="512" r="182" stroke="url(#ring)" stroke-width="8" opacity="0.55"/>
    <path d="M152 512H872" stroke="url(#disk)" stroke-width="54" stroke-linecap="round"/>
    <path d="M298 420C372 356 652 356 726 420" stroke="#A98CFF" stroke-opacity="0.6" stroke-width="18" stroke-linecap="round"/>
    <path d="M298 604C372 668 652 668 726 604" stroke="#E2B7FF" stroke-opacity="0.5" stroke-width="18" stroke-linecap="round"/>
  </g>

  <g opacity="0.35">
    <circle cx="178" cy="268" r="2" fill="#CBB6FF"/>
    <circle cx="216" cy="322" r="1.6" fill="#BFA8FF"/>
    <circle cx="812" cy="260" r="1.7" fill="#CBB6FF"/>
    <circle cx="846" cy="312" r="2.1" fill="#E2B7FF"/>
    <circle cx="792" cy="760" r="2" fill="#BFA8FF"/>
    <circle cx="218" cy="746" r="1.9" fill="#E2B7FF"/>
    <circle cx="316" cy="812" r="1.4" fill="#CBB6FF"/>
    <circle cx="706" cy="824" r="1.5" fill="#CBB6FF"/>
  </g>
</svg>
